<?xml version="1.0" encoding="UTF-8" standalone="no"?>
<svg
   xmlns:dc="http://purl.org/dc/elements/1.1/"
   xmlns:cc="http://creativecommons.org/ns#"
   xmlns:rdf="http://www.w3.org/1999/02/22-rdf-syntax-ns#"
   xmlns:svg="http://www.w3.org/2000/svg"
   xmlns="http://www.w3.org/2000/svg"
   xmlns:xlink="http://www.w3.org/1999/xlink"
   viewBox="0 0 128 128"
   style="display:inline;enable-background:new"
   version="1.0"
   id="svg11300"
   height="128"
   width="128">
  <title
     id="title4162">Adwaita Icon Template</title>
  <defs
     id="defs3">
    <linearGradient
       id="linearGradient1378">
      <stop
         style="stop-color:#424048;stop-opacity:1"
         offset="0"
         id="stop1366" />
      <stop
         id="stop1368"
         offset="0.04702194"
         style="stop-color:#f6f5f4;stop-opacity:1" />
      <stop
         style="stop-color:#949390;stop-opacity:1"
         offset="0.09717868"
         id="stop1370" />
      <stop
         id="stop1372"
         offset="0.89968652"
         style="stop-color:#d5d3cf;stop-opacity:1" />
      <stop
         style="stop-color:#f6f5f4;stop-opacity:1"
         offset="0.94984329"
         id="stop1374" />
      <stop
         style="stop-color:#424048;stop-opacity:1"
         offset="1"
         id="stop1376" />
    </linearGradient>
    <linearGradient
       id="linearGradient1364">
      <stop
         id="stop1352"
         offset="0"
         style="stop-color:#000000;stop-opacity:1" />
      <stop
         style="stop-color:#424048;stop-opacity:1"
         offset="0.04702194"
         id="stop1354" />
      <stop
         id="stop1356"
         offset="0.09717868"
         style="stop-color:#241f31;stop-opacity:1" />
      <stop
         style="stop-color:#241f31;stop-opacity:1"
         offset="0.89968652"
         id="stop1358" />
      <stop
         id="stop1360"
         offset="0.94984329"
         style="stop-color:#424048;stop-opacity:1" />
      <stop
         id="stop1362"
         offset="1"
         style="stop-color:#000000;stop-opacity:1" />
    </linearGradient>
    <linearGradient
       id="linearGradient1235">
      <stop
         style="stop-color:#949390;stop-opacity:1"
         offset="0"
         id="stop1231" />
      <stop
         style="stop-color:#424048;stop-opacity:1"
         offset="1"
         id="stop1233" />
    </linearGradient>
    <linearGradient
       id="linearGradient983">
      <stop
         id="stop979"
         offset="0"
         style="stop-color:#000000;stop-opacity:0.25098041" />
      <stop
         id="stop981"
         offset="1"
         style="stop-color:#000000;stop-opacity:0.03137255" />
    </linearGradient>
    <linearGradient
       id="linearGradient1282">
      <stop
         id="stop1278"
         offset="0"
         style="stop-color:#f6f5f4;stop-opacity:1;" />
      <stop
         id="stop1280"
         offset="1"
         style="stop-color:#ffffff;stop-opacity:1" />
    </linearGradient>
    <linearGradient
       id="linearGradient1494">
      <stop
         id="stop1490"
         offset="0"
         style="stop-color:#babdb6;stop-opacity:1;" />
      <stop
         id="stop1492"
         offset="1"
         style="stop-color:#babdb6;stop-opacity:0;" />
    </linearGradient>
    <linearGradient
       gradientUnits="userSpaceOnUse"
       y2="20"
       x2="280"
       y1="172"
       x1="280"
       id="linearGradient1496"
       xlink:href="#linearGradient1494" />
    <linearGradient
       gradientTransform="matrix(0.25,0,0,0.25,-1e-5,225)"
       gradientUnits="userSpaceOnUse"
       y2="59.234238"
       x2="318.91211"
       y1="113.76978"
       x1="301.62421"
       id="linearGradient2155"
       xlink:href="#linearGradient2153" />
    <linearGradient
       id="linearGradient2153">
      <stop
         id="stop2149"
         offset="0"
         style="stop-color:#d5d3cf;stop-opacity:1" />
      <stop
         id="stop2151"
         offset="1"
         style="stop-color:#f6f5f4;stop-opacity:1" />
    </linearGradient>
    <linearGradient
       gradientTransform="matrix(0.25,0,0,0.25,-1e-5,225)"
       y2="-112.15472"
       x2="249"
       y1="125"
       x1="249"
       gradientUnits="userSpaceOnUse"
       id="linearGradient1057"
       xlink:href="#linearGradient2147" />
    <linearGradient
       id="linearGradient2147">
      <stop
         style="stop-color:#e3e0dd;stop-opacity:1"
         offset="0"
         id="stop2143" />
      <stop
         style="stop-color:#e9f1f3;stop-opacity:1"
         offset="1"
         id="stop2145" />
    </linearGradient>
    <linearGradient
       gradientTransform="matrix(0.25,0,0,0.25,-1e-5,225)"
       gradientUnits="userSpaceOnUse"
       y2="-172"
       x2="323.00003"
       y1="217"
       x1="347.00003"
       id="linearGradient1284"
       xlink:href="#linearGradient1282" />
    <linearGradient
       y2="619.96387"
       x2="496"
       y1="619.96387"
       x1="177"
       gradientTransform="matrix(0.25,0,0,0.24305558,-20.00001,91.56432)"
       gradientUnits="userSpaceOnUse"
       id="linearGradient1444-3-9"
       xlink:href="#linearGradient1378" />
    <linearGradient
       y2="799.96387"
       x2="494.99994"
       y1="799.96387"
       x1="176"
       gradientTransform="matrix(0.25,0,0,0.24305558,-20.00001,91.56432)"
       gradientUnits="userSpaceOnUse"
       id="linearGradient1121"
       xlink:href="#linearGradient1364" />
    <radialGradient
       r="16"
       fy="199.58058"
       fx="128"
       cy="199.58058"
       cx="128"
       gradientUnits="userSpaceOnUse"
       id="radialGradient1131"
       xlink:href="#linearGradient983" />
    <radialGradient
       r="8"
       fy="200.07188"
       fx="127.9371"
       cy="200.07188"
       cx="127.9371"
       gradientTransform="matrix(1.3756505,0,0,1.3756505,-47.996726,-75.471623)"
       gradientUnits="userSpaceOnUse"
       id="radialGradient1133"
       xlink:href="#linearGradient1235" />
  </defs>
  <metadata
     id="metadata4">
    <rdf:RDF>
      <cc:Work
         rdf:about="">
        <dc:format>image/svg+xml</dc:format>
        <dc:type
           rdf:resource="http://purl.org/dc/dcmitype/StillImage" />
        <dc:creator>
          <cc:Agent>
            <dc:title>GNOME Design Team</dc:title>
          </cc:Agent>
        </dc:creator>
        <dc:source />
        <cc:license
           rdf:resource="http://creativecommons.org/licenses/by-sa/4.0/" />
        <dc:title>Adwaita Icon Template</dc:title>
        <dc:subject>
          <rdf:Bag />
        </dc:subject>
        <dc:date />
        <dc:rights>
          <cc:Agent>
            <dc:title />
          </cc:Agent>
        </dc:rights>
        <dc:publisher>
          <cc:Agent>
            <dc:title />
          </cc:Agent>
        </dc:publisher>
        <dc:identifier />
        <dc:relation />
        <dc:language />
        <dc:coverage />
        <dc:description />
        <dc:contributor>
          <cc:Agent>
            <dc:title />
          </cc:Agent>
        </dc:contributor>
      </cc:Work>
      <cc:License
         rdf:about="http://creativecommons.org/licenses/by-sa/4.0/">
        <cc:permits
           rdf:resource="http://creativecommons.org/ns#Reproduction" />
        <cc:permits
           rdf:resource="http://creativecommons.org/ns#Distribution" />
        <cc:requires
           rdf:resource="http://creativecommons.org/ns#Notice" />
        <cc:requires
           rdf:resource="http://creativecommons.org/ns#Attribution" />
        <cc:permits
           rdf:resource="http://creativecommons.org/ns#DerivativeWorks" />
        <cc:requires
           rdf:resource="http://creativecommons.org/ns#ShareAlike" />
      </cc:License>
    </rdf:RDF>
  </metadata>
  <g
     transform="translate(0,-172)"
     style="display:inline"
     id="layer1">
    <g
       style="display:inline"
       id="layer9">
      <circle
         r="0"
         cy="172"
         cx="32.500057"
         id="path907"
         style="opacity:0.05;fill:#ac1d2e;fill-opacity:1;stroke:none;stroke-width:0.01114019px;stroke-linecap:butt;stroke-linejoin:miter;stroke-miterlimit:4;stroke-dasharray:none;stroke-dashoffset:0;stroke-opacity:1;marker:none;marker-start:none;marker-mid:none;marker-end:none;paint-order:normal" />
      <rect
         ry="8"
         rx="8"
         y="221.99998"
         x="24"
         height="70"
         width="80"
         id="rect1480-3-7-1-2"
         style="display:inline;opacity:1;fill:url(#linearGradient1121);fill-opacity:1;stroke:none;stroke-width:0.01114019px;stroke-linecap:butt;stroke-linejoin:miter;stroke-miterlimit:4;stroke-dasharray:none;stroke-dashoffset:0;stroke-opacity:1;marker:none;marker-start:none;marker-mid:none;marker-end:none;paint-order:normal;enable-background:new" />
      <rect
         ry="8"
         rx="8"
         y="215.99998"
         x="24"
         height="70"
         width="80"
         id="rect1480-3-7-1"
         style="display:inline;opacity:1;fill:url(#linearGradient1444-3-9);fill-opacity:1;stroke:none;stroke-width:0.01114019px;stroke-linecap:butt;stroke-linejoin:miter;stroke-miterlimit:4;stroke-dasharray:none;stroke-dashoffset:0;stroke-opacity:1;marker:none;marker-start:none;marker-mid:none;marker-end:none;paint-order:normal;enable-background:new" />
      <rect
         ry="8.4571428"
         rx="8"
         y="180"
         x="24"
         height="104"
         width="80"
         id="rect1480-6-7"
         style="display:inline;opacity:1;fill:url(#linearGradient1284);fill-opacity:1;stroke:none;stroke-width:0.01161654px;stroke-linecap:butt;stroke-linejoin:miter;stroke-miterlimit:4;stroke-dasharray:none;stroke-dashoffset:0;stroke-opacity:1;marker:none;marker-start:none;marker-mid:none;marker-end:none;paint-order:normal;enable-background:new" />
      <g
         transform="matrix(0.25,0,0,0.25,-1e-5,225)"
         id="g1036"
         style="display:inline;enable-background:new">
        <circle
           style="display:inline;opacity:1;fill:url(#radialGradient1131);fill-opacity:1;stroke:none;stroke-width:0.04456074px;stroke-linecap:butt;stroke-linejoin:miter;stroke-miterlimit:4;stroke-dasharray:none;stroke-dashoffset:0;stroke-opacity:1;marker:none;marker-start:none;marker-mid:none;marker-end:none;paint-order:normal;enable-background:new"
           id="path1137-3"
           cx="128"
           cy="204"
           r="16" />
        <circle
           style="opacity:1;fill:url(#radialGradient1133);fill-opacity:1;stroke:none;stroke-width:0.04456075px;stroke-linecap:butt;stroke-linejoin:miter;stroke-miterlimit:4;stroke-dasharray:none;stroke-dashoffset:0;stroke-opacity:1;marker:none;marker-start:none;marker-mid:none;marker-end:none;paint-order:normal"
           id="path1137"
           cx="128"
           cy="204"
           r="8" />
      </g>
      <path
         id="path905"
         d="m 41.99999,184 c -2.216,0 -4,1.784 -4,4 0,3.31371 -2.68629,6 -6,6 -2.216,0 -4,1.784 -4,4 v 8 c 0,2.216 1.784,4 4,4 3.31371,0 6,2.68629 6,6 -0.003,1.47715 -0.55015,2.90139 -1.5376,4 -5.92217,6.59263 -8.44822,15.13802 -8.4624,24 0,19.88225 16.11775,36 36,36 19.88225,0 36,-16.11775 36,-36 -0.0159,-8.86282 -2.5389,-17.40831 -8.46338,-24 -0.98709,-1.09875 -1.53421,-2.52298 -1.53662,-4 0,-3.31371 2.68629,-6 6,-6 2.216,0 4,-1.784 4,-4 v -8 c 0,-2.216 -1.784,-4 -4,-4 -3.31371,0 -6,-2.68629 -6,-6 0,-2.216 -1.784,-4 -4,-4 z m 22,56 a 6,6 0 0 1 6,6 6,6 0 0 1 -6,6 6,6 0 0 1 -6,-6 6,6 0 0 1 6,-6 z"
         style="display:inline;opacity:1;fill:#b9b7b4;fill-opacity:1;stroke:none;stroke-width:0.01114019px;stroke-linecap:butt;stroke-linejoin:miter;stroke-miterlimit:4;stroke-dasharray:none;stroke-dashoffset:0;stroke-opacity:1;marker:none;marker-start:none;marker-mid:none;marker-end:none;paint-order:normal;enable-background:new" />
      <path
         id="path905-2"
         d="m 41.99999,182 c -2.216,0 -4,1.784 -4,4 0,3.31371 -2.68629,6 -6,6 -2.216,0 -4,1.784 -4,4 v 8 c 0,2.216 1.784,4 4,4 3.31371,0 6,2.68629 6,6 -0.003,1.47715 -0.55015,2.90139 -1.5376,4 -5.92217,6.59263 -8.44822,15.13802 -8.4624,24 0,19.88225 16.11775,36 36,36 19.88225,0 36,-16.11775 36,-36 -0.0159,-8.86282 -2.5389,-17.40831 -8.46338,-24 -0.98709,-1.09875 -1.53421,-2.52298 -1.53662,-4 0,-3.31371 2.68629,-6 6,-6 2.216,0 4,-1.784 4,-4 v -8 c 0,-2.216 -1.784,-4 -4,-4 -3.31371,0 -6,-2.68629 -6,-6 0,-2.216 -1.784,-4 -4,-4 z m 22,56 a 6,6 0 0 1 6,6 6,6 0 0 1 -6,6 6,6 0 0 1 -6,-6 6,6 0 0 1 6,-6 z"
         style="display:inline;opacity:1;fill:url(#linearGradient1057);fill-opacity:1;stroke:none;stroke-width:0.01161654px;stroke-linecap:butt;stroke-linejoin:miter;stroke-miterlimit:4;stroke-dasharray:none;stroke-dashoffset:0;stroke-opacity:1;marker:none;marker-start:none;marker-mid:none;marker-end:none;paint-order:normal;enable-background:new" />
      <use
         height="100%"
         width="100%"
         transform="translate(64)"
         id="use1038"
         xlink:href="#g1036"
         y="0"
         x="0"
         style="display:inline;enable-background:new" />
      <use
         height="100%"
         width="100%"
         transform="translate(64,-60)"
         id="use1038-9"
         xlink:href="#g1036"
         y="0"
         x="0"
         style="display:inline;enable-background:new" />
      <use
         height="100%"
         width="100%"
         transform="translate(64,-88)"
         id="use1038-7"
         xlink:href="#g1036"
         y="0"
         x="0"
         style="display:inline;enable-background:new" />
      <use
         height="100%"
         width="100%"
         transform="translate(0,-88)"
         id="use1038-2"
         xlink:href="#g1036"
         y="0"
         x="0"
         style="display:inline;enable-background:new" />
      <use
         height="100%"
         width="100%"
         transform="translate(0,-60)"
         id="use1038-3"
         xlink:href="#g1036"
         y="0"
         x="0"
         style="display:inline;enable-background:new" />
      <path
         style="color:#000000;font-style:normal;font-variant:normal;font-weight:normal;font-stretch:normal;font-size:medium;line-height:normal;font-family:Sans;-inkscape-font-specification:Sans;text-indent:0;text-align:start;text-decoration:none;text-decoration-line:none;letter-spacing:normal;word-spacing:normal;text-transform:none;writing-mode:lr-tb;direction:ltr;text-anchor:start;display:inline;overflow:visible;visibility:visible;fill:#949390;fill-opacity:1;fill-rule:nonzero;stroke:none;stroke-width:2.11522007;marker:none;enable-background:accumulate"
         d="m 61.39918,213.87039 c -2.25592,0 -4.44247,0.51766 -6.45873,1.21867 l 10.64819,10.61898 c 2.18821,2.18216 2.18821,5.65137 0,7.83365 l -4.01489,4.00387 c -2.18822,2.18216 -5.66701,2.18216 -7.85523,0 L 43.07034,226.92659 c -0.70299,2.01064 -1.22193,4.19123 -1.22193,6.44098 0,10.76797 8.75318,19.49707 19.55077,19.49707 2.25593,0 4.44248,-0.51766 6.45875,-1.21855 l 29.00274,28.98453 c 9.32243,9.32244 21.00762,-2.70043 12.04464,-11.66341 L 79.72802,239.80856 c 0.70298,-2.01064 1.22191,-4.19123 1.22191,-6.44098 0,-10.76797 -8.75317,-19.49719 -19.55077,-19.49719 z"
         id="path3908-4-3" />
      <path
         id="path2141"
         d="m 61.39918,211.87039 c -2.25592,0 -4.44247,0.51766 -6.45873,1.21867 l 10.64819,10.61898 c 2.18821,2.18216 2.18821,5.65137 0,7.83365 l -4.01489,4.00387 c -2.18822,2.18216 -5.66701,2.18216 -7.85523,0 L 43.07034,224.92659 c -0.70299,2.01064 -1.22193,4.19123 -1.22193,6.44098 0,10.76797 8.75318,19.49707 19.55077,19.49707 2.25593,0 4.44248,-0.51766 6.45875,-1.21855 l 29.00274,28.98453 c 9.32243,9.32244 21.00762,-2.70043 12.04464,-11.66341 L 79.72802,237.80856 c 0.70298,-2.01064 1.22191,-4.19123 1.22191,-6.44098 0,-10.76797 -8.75317,-19.49719 -19.55077,-19.49719 z"
         style="color:#000000;font-style:normal;font-variant:normal;font-weight:normal;font-stretch:normal;font-size:medium;line-height:normal;font-family:Sans;-inkscape-font-specification:Sans;text-indent:0;text-align:start;text-decoration:none;text-decoration-line:none;letter-spacing:normal;word-spacing:normal;text-transform:none;writing-mode:lr-tb;direction:ltr;text-anchor:start;display:inline;overflow:visible;visibility:visible;fill:url(#linearGradient2155);fill-opacity:1;fill-rule:nonzero;stroke:none;stroke-width:2.11522007;marker:none;enable-background:accumulate" />
      <path
         id="path2157"
         d="m 61.39941,211.8706 c -2.25593,0 -4.44273,0.51725 -6.45899,1.21827 l 1.92041,1.91503 c 1.45811,-0.38345 2.98112,-0.6333 4.53858,-0.6333 10.33857,0 18.80146,8.00309 19.50244,18.13575 0.0283,-0.37752 0.0478,-0.75668 0.0478,-1.13868 0,-10.76796 -8.7527,-19.49707 -19.55029,-19.49707 z M 43.0703,224.92676 c -0.70299,2.01064 -1.22168,4.19116 -1.22168,6.44091 0,0.45777 0.0167,0.91145 0.0479,1.36133 0.13828,-1.84584 0.59019,-3.633 1.17382,-5.30224 l 10.64844,10.61865 c 2.18822,2.18216 5.66676,2.18216 7.85498,0 l 4.01514,-4.00391 c 1.41894,-1.41509 1.91639,-3.37096 1.49512,-5.1665 -0.22845,0.97328 -0.72597,1.89944 -1.49512,2.6665 l -4.01514,4.00391 c -2.18822,2.18216 -5.66676,2.18216 -7.85498,0 z m 37.24414,13.46777 c -0.17236,0.65177 -0.36888,1.29185 -0.58642,1.91406 l 29.17724,29.15869 c 1.85113,1.85114 2.81996,3.83232 3.11231,5.7295 0.40512,-2.57988 -0.42468,-5.54187 -3.11231,-8.2295 z"
         style="color:#000000;font-style:normal;font-variant:normal;font-weight:normal;font-stretch:normal;font-size:medium;line-height:normal;font-family:Sans;-inkscape-font-specification:Sans;text-indent:0;text-align:start;text-decoration:none;text-decoration-line:none;letter-spacing:normal;word-spacing:normal;text-transform:none;writing-mode:lr-tb;direction:ltr;text-anchor:start;display:inline;overflow:visible;visibility:visible;fill:#ffffff;fill-opacity:1;fill-rule:nonzero;stroke:none;stroke-width:2.11522007;marker:none;enable-background:accumulate" />
    </g>
    <g
       style="fill:url(#linearGradient1496);fill-opacity:1"
       id="g1480" />
  </g>
</svg>
